<svg xmlns="http://www.w3.org/2000/svg" width="25.799" height="20.501" viewBox="0 0 25.799 20.501"><defs><style>.a{fill:#000;}</style></defs><path class="a" d="M25.453,80.073H.346A.346.346,0,0,1,0,79.728V78.346A.346.346,0,0,1,.346,78H25.453a.346.346,0,0,1,.346.346v1.382a.346.346,0,0,1-.346.346Zm0,9.214H.346A.346.346,0,0,1,0,88.941V87.559a.346.346,0,0,1,.346-.346H25.453a.346.346,0,0,1,.346.346v1.382a.346.346,0,0,1-.346.346Zm0,9.214H.346A.346.346,0,0,1,0,98.155V96.773a.346.346,0,0,1,.346-.346H25.453a.346.346,0,0,1,.346.346v1.382a.346.346,0,0,1-.346.346Z" transform="translate(0 -78)"/></svg>