<svg xmlns="http://www.w3.org/2000/svg" width="10" height="10" viewBox="0 0 10 10"><defs><style>.a{fill:#fff;}</style></defs><path class="a" d="M9.521.464,7.552.009a.612.612,0,0,0-.7.354L5.945,2.482a.612.612,0,0,0,.174.713l1.053.861A6.836,6.836,0,0,1,4.054,7.173L3.193,6.121a.612.612,0,0,0-.713-.174L.363,6.855a.61.61,0,0,0-.354.7L.462,9.519a.61.61,0,0,0,.6.475A8.933,8.933,0,0,0,9.994,1.058.606.606,0,0,0,9.521.464ZM1.07,9.369.621,7.423l2.1-.9L3.88,7.947A7.547,7.547,0,0,0,7.945,3.882L6.523,2.72l.9-2.1,1.945.449A8.306,8.306,0,0,1,1.07,9.369Z" transform="translate(0.006 0.006)"/></svg>